<svg xmlns="http://www.w3.org/2000/svg" viewBox="0 0 512 512" width="512" height="512">
  <!--
    Copied verbatim from the app repository's admin/brand/icon.svg, which is the
    source of truth for every icon in the product. `npm run branding:diff`
    reports drift between the two. Do not edit this file; edit it there.

    The copies under apps/web/public/icons/ are generated from the same source
    by apps/web/scripts/generate-icons.mjs and are not committed.

    The glyph is the Font Awesome Free "book-bible" icon (solid) by Fonticons,
    Inc. (https://fontawesome.com), licensed CC BY 4.0
    (https://creativecommons.org/licenses/by/4.0/). Modified: recoloured white
    and composited onto a background tile. See admin/THIRD-PARTY-NOTICES.md.
  -->
  <rect width="512" height="512" rx="96" fill="#2563eb"/>
  <!-- Glyph is 448x512; scaled to 296px tall and centred on the 512 tile. -->
  <g transform="translate(126.5, 108) scale(0.578)">
    <path fill="#ffffff" d="M96 512c-53 0-96-43-96-96L0 96C0 43 43 0 96 0L400 0c26.5 0 48 21.5 48 48l0 288c0 20.9-13.4 38.7-32 45.3l0 66.7c17.7 0 32 14.3 32 32s-14.3 32-32 32L96 512zm0-128c-17.7 0-32 14.3-32 32s14.3 32 32 32l256 0 0-64-256 0zM192 80l0 48-48 0c-8.8 0-16 7.2-16 16l0 32c0 8.8 7.2 16 16 16l48 0 0 112c0 8.8 7.2 16 16 16l32 0c8.8 0 16-7.2 16-16l0-112 48 0c8.8 0 16-7.2 16-16l0-32c0-8.8-7.2-16-16-16l-48 0 0-48c0-8.8-7.2-16-16-16l-32 0c-8.8 0-16 7.2-16 16z"/>
  </g>
</svg>
